<?xml version="1.0" encoding="UTF-8"?>
<svg version="1.1" xmlns="http://www.w3.org/2000/svg" width="512" height="512">
<path d="M0 0 C12.44794101 10.32110796 21.16760721 23.59473728 26.45166016 38.84643555 C26.93119141 40.19608398 26.93119141 40.19608398 27.42041016 41.57299805 C33.14894178 61.25156501 30.55764683 83.75947099 21.82666016 102.03393555 C21.545 102.62706543 21.26333984 103.22019531 20.97314453 103.83129883 C14.30998728 116.70899784 3.69228037 127.04092766 -6.47309875 137.14541626 C-7.86473373 138.5397974 -9.25571285 139.93483335 -10.64609879 141.33045995 C-14.43808677 145.13296095 -18.23927521 148.92614252 -22.04214537 152.71775603 C-26.15318416 156.81990837 -30.25552206 160.93074677 -34.35899353 165.04046631 C-42.38488464 173.07581973 -50.41875964 181.10314415 -58.45546756 189.1276774 C-67.34132802 198.00057944 -76.22032773 206.88033075 -85.09869997 215.76072466 C-102.75698189 233.42296533 -120.42357348 251.0768725 -138.09423181 268.72672994 C-153.79082171 284.40492963 -169.48109799 300.08942012 -185.16577148 315.77954102 C-186.17403017 316.78814613 -187.18228902 317.79675108 -188.19054804 318.80535586 C-188.68901646 319.30399527 -189.18748487 319.80263469 -189.70105839 320.31638438 C-192.2103319 322.82651144 -194.71962029 325.33662362 -197.22892475 327.84671974 C-197.72398461 328.34193668 -198.21904447 328.83715363 -198.72910615 329.34737714 C-211.84558855 342.46784791 -224.96679959 355.58358784 -238.08952779 368.69781148 C-239.96974736 370.57682377 -241.84996629 372.45583671 -243.73018456 374.33485031 C-244.65527217 375.25933438 -245.58035978 376.18381846 -246.53348035 377.1363172 C-253.05716825 383.65612332 -259.57871462 390.17806686 -266.0995121 396.7007637 C-274.03868912 404.64206 -281.98151566 412.57968483 -289.92901478 420.51265283 C-293.98476843 424.56115125 -298.03890648 428.61123326 -302.08875656 432.66563797 C-305.79319273 436.37413906 -309.50218886 440.07801398 -313.21493735 443.77819268 C-314.55966329 445.11998169 -315.90269636 446.46346978 -317.24389056 447.80878897 C-319.06256815 449.63255315 -320.88724788 451.45009192 -322.7135973 453.26616859 C-323.23666382 453.7936316 -323.75973035 454.32109461 -324.29864737 454.86454135 C-328.76989595 459.2877923 -332.84683345 461.88665929 -338.92823792 463.42204285 C-339.99478104 463.69541977 -341.06132416 463.96879669 -342.16018677 464.25045776 C-343.32025238 464.53889557 -344.48031799 464.82733337 -345.67553711 465.12451172 C-347.52040459 465.59334023 -347.52040459 465.59334023 -349.40254211 466.07164001 C-352.76874647 466.92648349 -356.13751685 467.77075207 -359.50705457 468.61234832 C-362.32780488 469.31771402 -365.14735602 470.02781036 -367.96695656 470.7377556 C-374.62732278 472.41449313 -381.28990651 474.08220084 -387.95385742 475.74462891 C-394.80489072 477.45392412 -401.65163804 479.17964143 -408.49652058 480.91338748 C-414.39060905 482.40559673 -420.28740606 483.88674051 -426.18641132 485.35939199 C-429.70171256 486.23712525 -433.21583413 487.11900398 -436.72732735 488.0118618 C-440.65279315 489.00944221 -444.58366247 489.98389734 -448.51538086 490.95654297 C-450.23422485 491.39830872 -450.23422485 491.39830872 -451.98779297 491.84899902 C-459.0383595 493.56845888 -466.29464244 495.03813559 -473.54833984 493.84643555 C-477.32210459 491.50520716 -480.53909673 488.86492177 -482.54833984 484.84643555 C-483.28210687 476.12126839 -481.82837048 468.24384159 -479.67431641 459.8293457 C-479.36862732 458.58877411 -479.06293823 457.34820251 -478.74798584 456.07003784 C-477.9177708 452.70347272 -477.07011199 449.34153938 -476.21833515 445.98037386 C-475.32521011 442.44601233 -474.44639665 438.90808929 -473.56536865 435.37069702 C-472.08560599 429.43901464 -470.59436692 423.5103086 -469.09619141 417.58325195 C-467.36741022 410.74325968 -465.65724607 403.8988154 -463.95682931 397.05172122 C-462.31463497 390.44098561 -460.65914271 383.83364883 -458.99767303 377.22773361 C-458.29324318 374.4259331 -457.59348342 371.62302841 -456.8975296 368.81911087 C-455.9252643 364.90494563 -454.93361111 360.99594441 -453.93994141 357.0871582 C-453.65509888 355.93068787 -453.37025635 354.77421753 -453.07678223 353.58270264 C-452.80203064 352.51478485 -452.52727905 351.44686707 -452.24420166 350.34658813 C-452.01190983 349.4237887 -451.779618 348.50098927 -451.54028702 347.55022621 C-449.36354427 341.61699017 -445.24191431 337.24867743 -440.82382107 332.86744118 C-440.25351932 332.29393295 -439.68321757 331.72042473 -439.09563395 331.12953746 C-437.1843017 329.209907 -435.26593753 327.29746487 -433.34751892 325.38491821 C-431.96142637 323.99580488 -430.57576839 322.6062578 -429.19050795 321.21631467 C-425.38295731 317.39846542 -421.56917821 313.58689155 -417.75433934 309.77632666 C-413.64083895 305.66529017 -409.5330796 301.54852404 -405.42456055 297.43251038 C-397.3738581 289.36904857 -389.31767416 281.31108492 -381.25942027 273.25517036 C-374.70862345 266.70615584 -368.15959376 260.15537925 -361.61181831 253.60334396 C-360.68023949 252.67116995 -359.74866066 251.73899593 -358.78885217 250.77857422 C-357.37081896 249.35963374 -355.95278645 247.94069256 -354.53475781 246.52174751 C-341.3498601 233.32841995 -328.16291602 220.13714059 -314.97171688 206.9501133 C-314.47443444 206.45298723 -313.977152 205.95586117 -313.4648004 205.44367068 C-310.94443018 202.92410623 -308.42403996 200.40456179 -305.90364175 197.88502534 C-305.15281955 197.13445976 -305.15281955 197.13445976 -304.38682922 196.36873125 C-303.37459794 195.35684662 -302.36236572 194.34496294 -301.35013257 193.33308019 C-285.6073602 177.59566247 -269.8712394 161.85162122 -254.14038086 146.10229492 C-236.46095948 128.40214247 -218.7765359 110.70700957 -201.08473784 93.01922739 C-191.71976584 83.65621661 -182.35705593 74.29096818 -173.00013542 64.91991043 C-165.03236757 56.94022622 -157.05936193 48.96582102 -149.07958256 40.99814774 C-145.00969115 36.93414377 -140.94222902 32.86778591 -136.8812809 28.79484367 C-133.15994726 25.06264714 -129.43169501 21.33750753 -125.69792718 17.61775164 C-124.35204451 16.27451479 -123.00866019 14.92876873 -121.66811573 13.58020432 C-88.14384373 -20.13058757 -39.78818621 -31.58089287 0 0 Z M-83.54833984 21.84643555 C-82.25535089 24.69017581 -80.89794086 26.74537853 -78.68832397 28.94696045 C-78.10499802 29.53303574 -77.52167206 30.11911102 -76.92066956 30.72294617 C-76.28265915 31.35376602 -75.64464874 31.98458588 -74.98730469 32.63452148 C-73.97737206 33.6448922 -73.97737206 33.6448922 -72.94703674 34.67567444 C-70.72249181 36.89882708 -68.49094856 39.11481348 -66.25927734 41.33081055 C-64.71470322 42.87165419 -63.17057034 44.41294027 -61.62686157 45.95465088 C-57.56405286 50.00982592 -53.49527362 54.05895879 -49.42523193 58.10687256 C-45.27254878 62.23909166 -41.12552641 66.37698312 -36.97802734 70.5144043 C-28.84033587 78.63065054 -20.69632715 86.74052638 -12.54833984 94.84643555 C-9.37289939 94.14060871 -9.37289939 94.14060871 -8.01318359 91.4050293 C-7.50916016 90.37506836 -7.00513672 89.34510742 -6.48583984 88.28393555 C-5.97923828 87.27202148 -5.47263672 86.26010742 -4.95068359 85.2175293 C0.18237796 72.87816406 0.28793606 58.35658184 -4.22802734 45.8034668 C-10.45489382 31.8574966 -20.44876478 21.72053075 -34.40380859 15.5925293 C-51.2303241 9.47185762 -68.91297238 11.71425807 -83.54833984 21.84643555 Z M-109.3359375 46.40698242 C-110.0376709 47.11918945 -110.7394043 47.83139648 -111.46240234 48.56518555 C-112.22294922 49.33217773 -112.98349609 50.09916992 -113.76708984 50.8894043 C-114.56115234 51.70022461 -115.35521484 52.51104492 -116.17333984 53.34643555 C-116.97513672 54.15725586 -117.77693359 54.96807617 -118.60302734 55.8034668 C-120.58932408 57.81340992 -122.57082019 59.82786231 -124.54833984 61.84643555 C-120.48279314 66.72620306 -116.22007709 71.3149881 -111.71679688 75.79150391 C-110.73524879 76.77327103 -110.73524879 76.77327103 -109.73387146 77.77487183 C-107.59366295 79.91438968 -105.44994601 82.05035431 -103.30615234 84.1862793 C-101.81235235 85.67821209 -100.31877456 87.1703674 -98.82540894 88.66273499 C-94.91171745 92.57262504 -90.99503119 96.47950148 -87.07769775 100.38574219 C-83.07389897 104.37927561 -79.07296172 108.37567364 -75.07177734 112.37182617 C-67.23341771 120.1994904 -59.39188892 128.02397154 -51.54833984 135.84643555 C-50.44495766 134.91005245 -49.34292955 133.97207367 -48.24145508 133.03344727 C-47.62761459 132.51128632 -47.01377411 131.98912537 -46.3813324 131.45114136 C-43.66881131 129.07644631 -41.13610791 126.54210954 -38.61083984 123.97143555 C-38.11777344 123.47385742 -37.62470703 122.9762793 -37.11669922 122.46362305 C-35.92487993 121.2602327 -34.73625306 120.05368189 -33.54833984 118.84643555 C-34.84666264 115.98938707 -36.21886891 113.92520138 -38.43286133 111.70794678 C-39.02171112 111.11345734 -39.61056091 110.5189679 -40.21725464 109.90646362 C-40.86147369 109.26629303 -41.50569275 108.62612244 -42.16943359 107.96655273 C-43.1891777 106.94155167 -43.1891777 106.94155167 -44.22952271 105.89584351 C-46.47662434 103.63994324 -48.73095807 101.39143226 -50.98583984 99.14331055 C-52.54790053 97.57990299 -54.10966419 96.01619861 -55.67114258 94.45220947 C-58.94304479 91.17735879 -62.21853756 87.90615326 -65.49658203 84.63745117 C-69.70700789 80.43843844 -73.90836763 76.23048698 -78.10710144 72.01978683 C-81.32899897 68.79067938 -84.5556237 65.56632959 -87.78372192 62.34342194 C-89.33540872 60.79307306 -90.88560088 59.24122681 -92.43429565 57.6878891 C-94.5938233 55.52330849 -96.75961256 53.36519924 -98.92724609 51.20874023 C-99.57146515 50.56047272 -100.2156842 49.9122052 -100.87942505 49.24429321 C-104.7108875 44.68095889 -104.7108875 44.68095889 -109.3359375 46.40698242 Z M-149.45104039 86.5007391 C-150.23402371 87.28448186 -151.01700703 88.06822462 -151.82371712 88.87571716 C-153.17776435 90.22379125 -153.17776435 90.22379125 -154.55916607 91.59909916 C-155.56737525 92.61301538 -156.57549208 93.62702343 -157.58352661 94.64111328 C-158.64902404 95.70573947 -159.71496049 96.76992644 -160.78130043 97.83370876 C-163.72290746 100.77082226 -166.65820606 103.71417196 -169.59256244 106.6585269 C-172.75323523 109.82780314 -175.91965102 112.99133203 -179.08538818 116.1555481 C-184.57365111 121.6427602 -190.05822818 127.13363445 -195.54034805 132.62698364 C-203.46666525 140.56952619 -211.39847206 148.50656761 -219.33164762 156.44225919 C-232.20124863 169.31624197 -245.06637312 182.19468863 -257.92871094 195.07592773 C-270.42637338 207.59193652 -282.92612598 220.10585172 -295.42871094 232.61694336 C-296.19883035 233.38758822 -296.96894976 234.15823308 -297.76240613 234.95223081 C-301.62572087 238.81815555 -305.4890769 242.68403902 -309.35245347 246.54990196 C-341.42415409 278.64235009 -373.48860226 310.74203688 -405.54833984 342.84643555 C-405.21833984 343.50643555 -404.88833984 344.16643555 -404.54833984 344.84643555 C-392.33833984 348.80643555 -380.12833984 352.76643555 -367.54833984 356.84643555 C-286.36833984 275.66643555 -205.18833984 194.48643555 -121.54833984 110.84643555 C-123.5335322 106.87605082 -125.38185353 104.75509022 -128.48583984 101.64331055 C-128.96657959 101.16065735 -129.44731934 100.67800415 -129.94262695 100.1807251 C-130.95555077 99.16644491 -131.97098622 98.15466751 -132.98876953 97.14526367 C-134.55007149 95.59471583 -136.10036481 94.03373051 -137.64990234 92.47143555 C-138.63624045 91.48641821 -139.62319834 90.50202101 -140.61083984 89.51831055 C-141.50931641 88.62208984 -142.40779297 87.72586914 -143.33349609 86.80249023 C-146.10822261 84.35197118 -146.64778285 84.063446 -149.45104039 86.5007391 Z M-101.37409604 134.42379475 C-102.49389129 135.54472916 -102.49389129 135.54472916 -103.63630867 136.68830872 C-104.49720608 137.54522403 -105.35810349 138.40213934 -106.2450887 139.28502178 C-107.20613488 140.25177499 -108.16708871 141.21862003 -109.12796021 142.18554688 C-110.14396005 143.20067546 -111.16039892 144.21536482 -112.17724121 145.22964954 C-114.98202985 148.02994499 -117.78050886 150.8364743 -120.57804656 153.64401102 C-123.59147848 156.66604687 -126.61065378 159.68233475 -129.62915039 162.6993103 C-134.86204245 167.93115157 -140.09124824 173.16665423 -145.31799698 178.40463257 C-152.87508493 185.97794627 -160.4376626 193.54575819 -168.00160931 201.11222088 C-180.27223891 213.38723219 -192.53839173 225.66670699 -204.80175781 237.94897461 C-216.71738891 249.88295221 -228.6351102 261.81483602 -240.55566406 273.74389648 C-241.65707726 274.84609785 -241.65707726 274.84609785 -242.78074123 275.97056592 C-246.46424711 279.6566818 -250.14779429 283.34275641 -253.83136201 287.0288105 C-284.41009366 317.62828946 -314.98129723 348.23528031 -345.54833984 378.84643555 C-341.58833984 391.05643555 -337.62833984 403.26643555 -333.54833984 415.84643555 C-330.50126314 416.16245279 -330.50126314 416.16245279 -328.52785283 414.19854403 C-327.748287 413.41783903 -326.96872116 412.63713403 -326.16553211 411.8327713 C-325.2643263 410.93753864 -324.3631205 410.04230597 -323.43460542 409.11994505 C-322.43322388 408.11000332 -321.43198123 407.09992385 -320.43086243 406.08972168 C-319.36884 405.02900638 -318.30615901 403.9689501 -317.24287385 402.9095006 C-314.31266014 399.986022 -311.39192786 397.05322541 -308.47259462 394.11888719 C-305.32669606 390.96007601 -302.17217693 387.8098952 -299.01867676 384.65867615 C-293.55279903 379.19437418 -288.09245639 373.7245907 -282.6357975 368.25108337 C-274.74630606 360.33724752 -266.84857851 352.43167379 -258.9487932 344.52811509 C-246.13324776 331.70599801 -233.32442105 318.87719079 -220.51977539 306.04418945 C-208.07862181 293.57551376 -195.63433236 281.10998169 -183.18579102 268.64868164 C-182.41892132 267.88102378 -181.65205163 267.11336591 -180.86194346 266.32244569 C-177.01490063 262.47148785 -173.16779584 258.62059191 -169.32066023 254.76972675 C-137.3869408 222.80488919 -105.46410548 190.82919868 -73.54833984 158.84643555 C-75.31594557 155.06040841 -77.52217555 152.61441589 -80.48583984 149.64331055 C-80.96657959 149.16065735 -81.44731934 148.67800415 -81.94262695 148.1807251 C-82.95555077 147.16644491 -83.97098622 146.15466751 -84.98876953 145.14526367 C-86.55007149 143.59471583 -88.10036481 142.03373051 -89.64990234 140.47143555 C-90.63624045 139.48641821 -91.62319834 138.50202101 -92.61083984 137.51831055 C-93.50931641 136.62208984 -94.40779297 135.72586914 -95.33349609 134.80249023 C-98.04813952 132.40503398 -98.6177305 132.04243706 -101.37409604 134.42379475 Z M-424.54833984 370.84643555 C-426.84367525 379.89637673 -429.13878904 388.94637407 -431.43362904 397.99644089 C-432.4995101 402.1998841 -433.56546413 406.40330878 -434.6315918 410.60668945 C-435.66271639 414.6720766 -436.69364033 418.73751457 -437.72443199 422.80298615 C-438.11542475 424.3449302 -438.50648674 425.8868567 -438.89762306 427.42876434 C-439.79385563 430.96190864 -440.68909071 434.49529464 -441.58145142 438.02941895 C-442.20801521 440.50292502 -442.83982939 442.97510942 -443.47787476 445.44567871 C-443.75338165 446.52055542 -444.02888855 447.59543213 -444.31274414 448.70288086 C-444.55300827 449.63110657 -444.7932724 450.55933228 -445.04081726 451.51568604 C-445.65472237 453.93742619 -445.65472237 453.93742619 -445.54833984 456.84643555 C-440.14676734 456.25399077 -434.96547235 455.34399493 -429.6953125 454.00463867 C-428.95608551 453.8207811 -428.21685852 453.63692352 -427.45523071 453.44749451 C-425.03978407 452.84546834 -422.62608586 452.23673854 -420.21240234 451.62768555 C-418.52477475 451.20518193 -416.83705969 450.78302758 -415.14926147 450.36120605 C-411.62676375 449.47980251 -408.10507517 448.59525894 -404.58398438 447.70825195 C-400.06574228 446.57016008 -395.54595862 445.43833958 -391.02561378 444.3086319 C-387.54740174 443.43894318 -384.06980736 442.56680687 -380.59241867 441.6938324 C-378.92514579 441.27542161 -377.25772918 440.85758317 -375.590168 440.44032288 C-373.26784186 439.85866084 -370.94631599 439.27391085 -368.625 438.68823242 C-367.93410278 438.51573471 -367.24320557 438.343237 -366.53137207 438.16551208 C-362.94914883 437.26202574 -362.94914883 437.26202574 -359.54833984 435.84643555 C-359.7170459 435.27062744 -359.88575195 434.69481934 -360.05957031 434.1015625 C-361.32787209 429.62607544 -362.51312425 425.1783536 -363.35400391 420.60180664 C-366.65283283 400.93920123 -366.65283283 400.93920123 -377.66790771 385.18902588 C-388.66355043 378.54975854 -401.8606424 375.79201931 -414.33096313 373.30773926 C-417.7649957 372.5933221 -421.15177649 371.72049584 -424.54833984 370.84643555 Z " fill="#FFFFFF" transform="translate(482.54833984375,18.153564453125)"/>
<path d="M0 0 C4.39731448 2.28394998 6.62282501 4.91665051 9.0625 9.31640625 C10.94866209 21.54872214 7.9603975 33.25818796 0.75 43.2265625 C-7.53527409 53.48726074 -16.8964548 59.84413891 -29.9375 62.31640625 C-34.87950682 62.67057602 -39.79272689 62.71698326 -44.74570274 62.6965313 C-47.18960174 62.68730025 -49.63275307 62.69777703 -52.07661438 62.71315002 C-59.0159921 62.75293576 -65.9553024 62.75444971 -72.89477539 62.75219727 C-77.16107622 62.752146 -81.42696704 62.77138183 -85.69315529 62.80153084 C-88.08849496 62.81228352 -90.48302881 62.80027534 -92.87834167 62.78770447 C-100.4104599 62.80549163 -106.52515936 62.90038414 -112.9375 67.31640625 C-116.46189956 71.20228269 -117.74678725 74.86408967 -118.09375 80.0078125 C-117.82366456 83.99832482 -116.57146359 87.30155087 -113.9375 90.31640625 C-108.11376654 94.41462243 -103.6973441 94.89162744 -96.67871094 94.83056641 C-95.67123306 94.8376915 -94.66375519 94.84481659 -93.62574768 94.85215759 C-90.30758898 94.87139627 -86.99007078 94.86316467 -83.671875 94.85546875 C-81.35409622 94.86538106 -79.03632531 94.87732433 -76.71856689 94.89120483 C-70.62034763 94.92355522 -64.52230785 94.9339567 -58.42401123 94.93804932 C-48.67848148 94.94680484 -38.93309929 94.98251005 -29.18769073 95.03022385 C-25.79611112 95.0427409 -22.40472043 95.04205639 -19.01312256 95.03994751 C-16.91336933 95.04653417 -14.81361737 95.05354167 -12.71386719 95.06103516 C-11.31694389 95.05484917 -11.31694389 95.05484917 -9.89179993 95.04853821 C5.38151608 95.14107018 17.71758582 99.24437338 28.875 109.97265625 C38.67207677 120.46952422 41.69062214 131.92203364 41.53295898 146.02050781 C41.29453822 152.73189329 40.28853893 158.34966168 37.0625 164.31640625 C36.55332031 165.25871094 36.04414063 166.20101562 35.51953125 167.171875 C28.80864968 178.55119593 18.88481843 186.01563496 6.16727626 189.89444321 C3.80088031 190.36885545 1.6281622 190.44552267 -0.78579521 190.45062733 C-1.76540997 190.45508517 -2.74502474 190.45954301 -3.75432479 190.46413594 C-4.82804623 190.46395158 -5.90176767 190.46376722 -7.00802612 190.46357727 C-8.15060509 190.46725396 -9.29318405 190.47093065 -10.47038662 190.47471875 C-13.64221271 190.4838358 -16.81400839 190.48845311 -19.98584533 190.49110806 C-23.40651612 190.49501538 -26.827172 190.50459321 -30.24783325 190.51332092 C-38.50729127 190.53307008 -46.7667505 190.54314818 -55.02622622 190.55204871 C-58.91559821 190.55643291 -62.80496884 190.56179926 -66.69433975 190.56703758 C-79.62207443 190.58404597 -92.54980827 190.59854139 -105.47755241 190.60578632 C-108.83122636 190.60769621 -112.1849003 190.60961655 -115.53857422 190.61157227 C-116.37211049 190.61205601 -117.20564675 190.61253975 -118.0644417 190.61303815 C-131.57521664 190.62134324 -145.08590318 190.64668995 -158.5966395 190.67915294 C-172.4665691 190.71220756 -186.33645373 190.73023351 -200.20642292 190.73343056 C-207.99451185 190.73559681 -215.78247175 190.74436252 -223.57052231 190.76989174 C-230.20108654 190.79157669 -236.83149039 190.79965998 -243.46208607 190.78992496 C-246.84525235 190.78537409 -250.22781868 190.78948427 -253.6109848 190.8066864 C-257.2786072 190.82429446 -260.94538464 190.81735288 -264.61300659 190.80415344 C-265.68226659 190.81512269 -266.75152658 190.82609193 -267.8531884 190.83739358 C-273.87497303 190.78492536 -277.34535294 190.32233475 -281.9375 186.31640625 C-285.48303678 182.28182991 -286.24689271 178.74674821 -286.1484375 173.37109375 C-285.66974017 168.70822715 -283.44793727 165.55778007 -280.0625 162.50390625 C-275.80557742 159.52406044 -272.20862778 159.1919686 -267.10671329 159.1889143 C-266.15645804 159.18590665 -265.20620279 159.182899 -264.22715193 159.17980021 C-262.67346684 159.18242577 -262.67346684 159.18242577 -261.08839417 159.18510437 C-259.98171275 159.18298866 -258.87503133 159.18087294 -257.73481411 159.17869312 C-254.01924443 159.17269222 -250.30370871 159.17369333 -246.58813477 159.17456055 C-243.92721368 159.17152917 -241.26629657 159.16808212 -238.6053772 159.16403198 C-232.87163361 159.15592521 -227.13789445 159.15097735 -221.40414619 159.14774132 C-212.3413468 159.14224069 -203.27858495 159.12533974 -194.21580505 159.10639954 C-191.11445338 159.10004312 -188.01310161 159.09373466 -184.91174984 159.08742237 C-184.13673039 159.08583861 -183.36171095 159.08425485 -182.56320607 159.08262309 C-173.74420713 159.06469218 -164.92520555 159.04846231 -156.10620117 159.03344727 C-155.30014594 159.03207139 -154.49409071 159.03069552 -153.66360956 159.02927796 C-140.59589942 159.00733899 -127.52819897 158.99658911 -114.46047366 158.98907652 C-101.04247565 158.98100698 -87.62456072 158.95772354 -74.20661014 158.92112285 C-65.93081472 158.89909472 -57.65519012 158.88943411 -49.37936687 158.89562318 C-43.70915715 158.89879652 -38.03909341 158.88747607 -32.36892886 158.86472877 C-29.09722207 158.85205566 -25.82590696 158.84807263 -22.55417824 158.85714531 C-19.00698319 158.86598979 -15.4607095 158.85040984 -11.91358948 158.82865906 C-10.36325047 158.84132286 -10.36325047 158.84132286 -8.78159148 158.8542425 C-2.83541375 158.78665419 0.52029335 158.24918371 5.0625 154.31640625 C8.98302912 149.98318986 9.69642313 146.4452842 9.44921875 140.78515625 C8.67212512 135.82431613 6.63480518 132.49563513 2.5625 129.44140625 C-1.15855068 127.76693345 -4.34401539 127.19184224 -8.4133606 127.17837524 C-9.30472214 127.17292191 -10.19608368 127.16746857 -11.11445618 127.16184998 C-12.57011238 127.16028648 -12.57011238 127.16028648 -14.05517578 127.15869141 C-15.08332901 127.15361069 -16.11148224 127.14852997 -17.17079163 127.14329529 C-19.40409621 127.13259549 -21.63741149 127.12397378 -23.87073135 127.11717606 C-27.41077495 127.10537554 -30.95069719 127.08591802 -34.49069214 127.0640564 C-44.55625339 127.0024899 -54.62180286 126.9484649 -64.6875 126.91503906 C-70.84545121 126.89403999 -77.00318203 126.85869154 -83.16100693 126.81428146 C-85.50281039 126.80015982 -87.84465285 126.79140773 -90.18649673 126.78822708 C-93.47238301 126.78329312 -96.75768949 126.76006947 -100.04345703 126.73291016 C-101.00174911 126.73591629 -101.9600412 126.73892242 -102.94737244 126.74201965 C-116.65364554 126.57462256 -127.6647476 121.20296139 -137.57421875 111.89453125 C-146.69333948 101.94639954 -150.63703429 89.68798118 -150.21875 76.3203125 C-148.96316955 62.91001571 -143.62925339 51.87850448 -133.84765625 42.61328125 C-121.6789859 33.00901525 -108.51472328 31.02990835 -93.46482277 31.011446 C-91.03853741 31.00774618 -88.61264776 30.99092565 -86.18644714 30.97068787 C-79.29502721 30.91559624 -72.40355279 30.88454283 -65.51196289 30.86010742 C-61.28042424 30.84420743 -57.04917415 30.8139762 -52.81778526 30.77534294 C-51.21231846 30.76372858 -49.60680009 30.7577629 -48.00129128 30.75766182 C-45.75682079 30.7574691 -43.51314533 30.73915878 -41.26879883 30.71704102 C-39.35760002 30.70943504 -39.35760002 30.70943504 -37.40779114 30.70167542 C-32.45056638 30.15132797 -29.16750915 28.54852158 -25.65625 25.03125 C-23.69793516 21.9380027 -23.08067329 19.47136759 -22.4375 15.87890625 C-21.12092112 9.58067755 -19.77759569 5.81224792 -14.875 1.50390625 C-10.34173337 -1.27454749 -4.99614354 -1.76275226 0 0 Z " fill="#FFFFFF" transform="translate(469.9375,321.68359375)"/>
</svg>
